<svg xmlns="http://www.w3.org/2000/svg" viewBox="0 0 512 512" width="512" height="512">
  <defs>
    <linearGradient id="grad" x1="0%" y1="0%" x2="100%" y2="100%">
      <stop offset="0%" stop-color="#4f46e5" />
      <stop offset="50%" stop-color="#6366f1" />
      <stop offset="100%" stop-color="#06b6d4" />
    </linearGradient>
    <filter id="glow" x="-20%" y="-20%" width="140%" height="140%">
      <feGaussianBlur stdDeviation="15" result="blur" />
      <feComposite in="SourceGraphic" in2="blur" operator="over" />
    </filter>
  </defs>
  <rect width="512" height="512" rx="128" fill="url(#grad)" />
  <g fill="none" stroke="#ffffff" stroke-width="28" stroke-linecap="round" stroke-linejoin="round" transform="translate(100, 100) scale(0.6)">
    <path d="M120 40 L400 40 L400 480 L350 450 L300 480 L260 450 L220 480 L170 450 L120 480 Z" fill="#ffffff" fill-opacity="0.15" />
    <path d="M120 40 L400 40 L400 480 L350 450 L300 480 L260 450 L220 480 L170 450 L120 480 Z" />
    <line x1="180" y1="140" x2="340" y2="140" stroke-width="24" />
    <line x1="180" y1="220" x2="340" y2="220" stroke-width="24" />
    <line x1="180" y1="300" x2="280" y2="300" stroke-width="24" />
    <circle cx="330" cy="300" r="15" fill="#ffffff" />
  </g>
  <circle cx="390" cy="120" r="40" fill="#10b981" stroke="#ffffff" stroke-width="12" />
</svg>
